<svg width="56" height="56" viewBox="0 0 56 56" fill="none" xmlns="http://www.w3.org/2000/svg">
<g clip-path="url(#clip0_1942_2365)">
<path fill-rule="evenodd" clip-rule="evenodd" d="M29.6492 36.6506C29.2117 37.088 28.6183 37.3337 27.9996 37.3337C27.3809 37.3337 26.7875 37.088 26.3499 36.6506L13.1502 23.4509C12.9274 23.2356 12.7496 22.9782 12.6273 22.6935C12.5051 22.4088 12.4407 22.1026 12.438 21.7928C12.4353 21.483 12.4943 21.1757 12.6117 20.889C12.729 20.6022 12.9022 20.3417 13.1213 20.1226C13.3404 19.9035 13.6009 19.7303 13.8877 19.613C14.1744 19.4956 14.4817 19.4366 14.7915 19.4393C15.1013 19.442 15.4075 19.5064 15.6922 19.6286C15.9769 19.7509 16.2343 19.9287 16.4496 20.1515L27.9996 31.7016L39.5496 20.1515C39.9897 19.7265 40.5791 19.4913 41.1908 19.4966C41.8026 19.502 42.3879 19.7474 42.8205 20.18C43.2531 20.6126 43.4985 21.1978 43.5038 21.8096C43.5091 22.4214 43.2739 23.0108 42.8489 23.4509L29.6492 36.6506Z" fill="#2E2E2E"/>
</g>
<defs>
<clipPath id="clip0_1942_2365">
<rect width="56.0001" height="56" fill="white" transform="matrix(0 1 -1 0 56 0)"/>
</clipPath>
</defs>
</svg>
