<svg width="24" height="24" viewBox="0 0 24 24" fill="none" xmlns="http://www.w3.org/2000/svg">
<path d="M12.5002 14.3889C13.2664 14.3889 14.0012 14.0845 14.543 13.5427C15.0847 13.001 15.3891 12.2662 15.3891 11.5C15.3891 10.7338 15.0847 9.99899 14.543 9.45722C14.0012 8.91545 13.2664 8.61108 12.5002 8.61108C11.734 8.61108 10.9992 8.91545 10.4575 9.45722C9.91569 9.99899 9.61133 10.7338 9.61133 11.5C9.61133 12.2662 9.91569 13.001 10.4575 13.5427C10.9992 14.0845 11.734 14.3889 12.5002 14.3889Z" stroke="black" stroke-opacity="0.8" stroke-width="1.5" stroke-linecap="round" stroke-linejoin="round"/>
<path d="M6 14.3889V8.61111C6 7.65338 6.38046 6.73488 7.05767 6.05767C7.73488 5.38046 8.65338 5 9.61111 5H15.3889C16.3466 5 17.2651 5.38046 17.9423 6.05767C18.6195 6.73488 19 7.65338 19 8.61111V14.3889C19 15.3466 18.6195 16.2651 17.9423 16.9423C17.2651 17.6195 16.3466 18 15.3889 18H9.61111C8.65338 18 7.73488 17.6195 7.05767 16.9423C6.38046 16.2651 6 15.3466 6 14.3889Z" stroke="black" stroke-opacity="0.8" stroke-width="1.5"/>
<path d="M16.4717 7.5381L16.4817 7.5271" stroke="black" stroke-opacity="0.8" stroke-width="1.5" stroke-linecap="round" stroke-linejoin="round"/>
</svg>
