<svg width="24" height="24" viewBox="0 0 24 24" fill="none" xmlns="http://www.w3.org/2000/svg">
<path d="M10.7143 14.1429L14.4214 12L10.7143 9.85714V14.1429ZM18.9714 8.55C19.0643 8.88571 19.1286 9.33571 19.1714 9.90714C19.2214 10.4786 19.2429 10.9714 19.2429 11.4L19.2857 12C19.2857 13.5643 19.1714 14.7143 18.9714 15.45C18.7929 16.0929 18.3786 16.5071 17.7357 16.6857C17.4 16.7786 16.7857 16.8429 15.8429 16.8857C14.9143 16.9357 14.0643 16.9571 13.2786 16.9571L12.1429 17C9.15 17 7.28571 16.8857 6.55 16.6857C5.90714 16.5071 5.49286 16.0929 5.31429 15.45C5.22143 15.1143 5.15714 14.6643 5.11429 14.0929C5.06429 13.5214 5.04286 13.0286 5.04286 12.6L5 12C5 10.4357 5.11429 9.28571 5.31429 8.55C5.49286 7.90714 5.90714 7.49286 6.55 7.31429C6.88571 7.22143 7.5 7.15714 8.44286 7.11429C9.37143 7.06429 10.2214 7.04286 11.0071 7.04286L12.1429 7C15.1357 7 17 7.11429 17.7357 7.31429C18.3786 7.49286 18.7929 7.90714 18.9714 8.55Z" fill="black" fill-opacity="0.8"/>
</svg>
