<svg width="30" height="30" viewBox="0 0 30 30" fill="none" xmlns="http://www.w3.org/2000/svg">
<path d="M2.1875 3.75H27.8125C29.02 3.75 30 4.73 30 5.9375V23.4375C30 24.0177 29.7695 24.5741 29.3593 24.9843C28.9491 25.3945 28.3927 25.625 27.8125 25.625H2.1875C1.60734 25.625 1.05094 25.3945 0.640704 24.9843C0.230468 24.5741 0 24.0177 0 23.4375L0 5.9375C0 4.73 0.98 3.75 2.1875 3.75ZM1.875 9.265V23.4375C1.875 23.61 2.015 23.75 2.1875 23.75H27.8125C27.8954 23.75 27.9749 23.7171 28.0335 23.6585C28.0921 23.5999 28.125 23.5204 28.125 23.4375V9.265L16.225 17.3063C15.485 17.8063 14.515 17.8063 13.775 17.3063L1.875 9.265ZM1.875 5.9375V7.0025L14.825 15.7525C14.8767 15.7874 14.9376 15.8061 15 15.8061C15.0624 15.8061 15.1233 15.7874 15.175 15.7525L28.125 7.0025V5.9375C28.125 5.85462 28.0921 5.77513 28.0335 5.71653C27.9749 5.65792 27.8954 5.625 27.8125 5.625H2.1875C2.10462 5.625 2.02513 5.65792 1.96653 5.71653C1.90792 5.77513 1.875 5.85462 1.875 5.9375Z" fill="#B3B3B3"/>
</svg>
