<svg width="30" height="30" viewBox="0 0 30 30" fill="none" xmlns="http://www.w3.org/2000/svg">
<g clip-path="url(#clip0_1993_2362)">
<path fill-rule="evenodd" clip-rule="evenodd" d="M15.8835 19.6341C15.6491 19.8684 15.3312 20 14.9998 20C14.6683 20 14.3504 19.8684 14.116 19.6341L7.04477 12.5628C6.92538 12.4475 6.83016 12.3096 6.76465 12.1571C6.69913 12.0046 6.66465 11.8405 6.66321 11.6746C6.66177 11.5086 6.69339 11.344 6.75625 11.1904C6.8191 11.0367 6.91191 10.8972 7.02928 10.7798C7.14665 10.6624 7.28621 10.5696 7.43983 10.5068C7.59345 10.4439 7.75805 10.4123 7.92402 10.4137C8.09 10.4152 8.25402 10.4497 8.40653 10.5152C8.55903 10.5807 8.69696 10.6759 8.81227 10.7953L14.9998 16.9828L21.1873 10.7953C21.423 10.5676 21.7388 10.4416 22.0665 10.4445C22.3943 10.4473 22.7078 10.5788 22.9395 10.8105C23.1713 11.0423 23.3028 11.3558 23.3056 11.6836C23.3085 12.0113 23.1825 12.3271 22.9548 12.5628L15.8835 19.6341Z" fill="#F5F5F5"/>
</g>
<defs>
<clipPath id="clip0_1993_2362">
<rect width="30" height="30" fill="white" transform="matrix(0 1 -1 0 30 -0.00012207)"/>
</clipPath>
</defs>
</svg>
